#Unknown ASF file
:ROOT_YZX
:FOOT_3DOF
:FULLY-SPECIFIED
:DEGREES
87
root 2.14931 17.8928 -23.3966 -1.6137 -156.446 -3.05127
lfemur -20.9854 6.07156 -20.3432
ltibia 33.9029
lfoot -7.76061 0 -3.27291
ltoes -6.67291
rfemur -0.882482 -7.85054 21.608
rtibia 55.3423
rfoot -11.2104 0 28.4136
rtoes -50.7137
lowerback 8.74389 2.88669 -1.02695
upperback 1.89777 3.69037 2.03309
thorax -3.1272 1.79432 2.26259
lowerneck -18.6232 1.46353 -13.8221
upperneck 24.0882 3.4116 9.21836
head 10.3411 1.24801 6.11365
lclavicle -2.82647e-014 -4.96962e-016
lhumerus -40.6035 11.6517 83.363
lradius 26.8309
lwrist -1.00936
lhand -11.7477 30.9908
lfingers 7.12502
lthumb 14.3001 60.4784
rclavicle -2.82647e-014 -4.96962e-016
rhumerus -31.6095 -8.66115 -76.7328
rradius 38.0539
rwrist -1.13434
rhand -18.6262 13.1971
rfingers 7.12502
rthumb 7.666 -16.6439
88
root 1.86089 17.8187 -23.8655 -2.9865 -155.48 -1.91987
lfemur -18.3409 5.30352 -21.7809
ltibia 35.592
lfoot -10.4198 0 -2.93662
ltoes -8.99922
rfemur -4.4139 -9.62325 18.8606
rtibia 63.128
rfoot -10.0144 0 30.8275
rtoes -47.9054
lowerback 9.51384 2.49736 -1.97468
upperback 2.41892 3.03596 1.97461
thorax -3.02647 1.45446 2.79493
lowerneck -17.4725 2.28651 -12.0627
upperneck 22.6887 4.39272 7.48649
head 9.59424 1.71234 5.19468
lclavicle -5.2181e-016 2.0276e-014
lhumerus -39.0567 9.50213 85.22
lradius 27.1778
lwrist -2.19615
lhand -10.5172 29.2892
lfingers 7.12502
lthumb 15.4856 58.689
rclavicle -5.2181e-016 2.0276e-014
rhumerus -32.0346 -8.16316 -77.5065
rradius 38.4334
rwrist 0.75528
rhand -19.1166 13.2651
rfingers 7.12502
rthumb 7.19263 -16.5927
89
root 1.63612 17.7422 -24.2977 -4.13412 -155.494 -1.43682
lfemur -16.158 5.08649 -22.1658
ltibia 37.2916
lfoot -12.8373 0 -2.51976
ltoes -8.61545
rfemur -8.91552 -9.90513 17.7856
rtibia 69.7656
rfoot -7.32648 0 27.1683
rtoes -48.1921
lowerback 10.6267 2.65435 -2.72817
upperback 2.72038 3.11891 2.26529
thorax -3.38876 1.48416 3.47864
lowerneck -17.7532 2.68424 -12.311
upperneck 22.5353 5.16787 7.14518
head 9.51401 2.02696 5.2017
lclavicle 3.79679e-014 2.0276e-014
lhumerus -37.1621 8.79491 86.0063
lradius 27.2209
lwrist -5.33715
lhand -8.0441 26.8989
lfingers 7.12502
lthumb 17.8664 56.0982
rclavicle 3.79679e-014 2.0276e-014
rhumerus -32.1962 -8.28748 -77.6394
rradius 37.669
rwrist 0.845343
rhand -20.0851 14.2026
rfingers 7.12502
rthumb 6.25765 -15.685
90
root 1.46319 17.6544 -24.6694 -4.71552 -156.446 -1.84817
lfemur -14.9719 5.71756 -21.421
ltibia 38.8632
lfoot -14.5589 0 -2.20572
ltoes -7.59622
rfemur -14.1873 -8.45303 18.7847
rtibia 74.1062
rfoot -4.5263 0 20.1863
rtoes -48.723
lowerback 11.4608 3.02947 -2.75223
upperback 2.92394 3.57603 2.73445
thorax -3.70481 1.69585 3.89024
lowerneck -20.2993 2.79236 -14.2675
upperneck 24.4187 5.78906 9.08436
head 10.4477 2.30933 6.49573
lclavicle 5.42185e-014 -1.78906e-014
lhumerus -35.4355 8.24708 86.6919
lradius 29.1333
lwrist -5.36779
lhand -8.6043 28.0985
lfingers 7.12502
lthumb 17.3273 57.3461
rclavicle 5.42185e-014 -1.78906e-014
rhumerus -32.3585 -9.09789 -78.0088
rradius 36.6323
rwrist -1.20361
rhand -21.6865 14.9973
rfingers 7.12502
rthumb 4.71152 -14.9303
91
root 1.11366 17.6011 -25.1731 -6.0996 -153.12 2.70939
lfemur -10.6289 3.834 -27.1506
ltibia 38.316
lfoot -16.6074 0 -2.58166
ltoes -7.54232
rfemur -15.3426 -11.0472 11.6139
rtibia 74.9073
rfoot -7.29917 0 12.1193
rtoes -49.4712
lowerback 10.9403 2.23168 -6.39574
upperback 3.61233 2.07574 1.60421
thorax -2.63971 0.915067 5.01766
lowerneck -20.3527 3.23016 -14.2213
upperneck 24.9693 6.35845 9.13064
head 10.5764 2.54309 6.60306
lclavicle -2.88735e-014 5.1684e-015
lhumerus -34.0939 7.97449 86.995
lradius 30.7283
lwrist -3.51643
lhand -10.1091 27.5759
lfingers 7.12502
lthumb 15.8786 56.9449
rclavicle -2.88735e-014 5.1684e-015
rhumerus -32.4295 -11.3596 -77.4649
rradius 34.5447
rwrist 0.181779
rhand -22.1607 15.0664
rfingers 7.12502
rthumb 4.25357 -14.8709
92
root 0.915398 17.5622 -25.5725 -6.31558 -153.024 2.6411
lfemur -8.28151 3.75614 -26.9223
ltibia 37.6316
lfoot -17.7784 0 -2.58264
ltoes -9.15989
rfemur -19.1858 -9.21704 12.4483
rtibia 73.0845
rfoot -6.39802 0 6.05814
rtoes -49.6365
lowerback 10.8826 2.11431 -6.13757
upperback 3.60129 1.95831 1.77151
thorax -2.60185 0.856448 5.06504
lowerneck -18.4724 3.89561 -11.8068
upperneck 24.0262 6.7238 7.30473
head 10.0057 2.73209 5.44338
lclavicle 9.73051e-014 1.82882e-014
lhumerus -33.2718 7.00445 87.2372
lradius 33.5427
lwrist 0.637567
lhand -12.231 30.8654
lfingers 7.12502
lthumb 13.8344 60.3853
rclavicle 9.73051e-014 1.82882e-014
rhumerus -32.0252 -12.3235 -77.4119
rradius 31.099
rwrist 1.02021
rhand -22.8596 15.1391
rfingers 7.12502
rthumb 3.57867 -14.8106
